# xmcd
#
# Track frame offsets:
#	150
#	16550
#	35003
#	53412
#	73978
#	93533
#	115862
#	140595
#	155791
#	174227
#	196761
#	220456
#	241643
#	261720
#	286099
#	308996
#
# Disc length: 4473 seconds
#
# Revision: 0
# Processed by: cddbd v1.5.2PL0 Copyright (c) Steve Scherf et al.
# Submitted via: EZCDAudioConverter 2.4.0.1
#
DISCID=e4117710
DTITLE=Mark Knopfler - Válogatás
DYEAR=2007
DGENRE=
TTITLE0=Wild theme
TTITLE1=The way it allways starts
TTITLE2=Devil Baby
TTITLE3=A place where we used to live
TTITLE4=The ragpicker's dream
TTITLE5=What it is
TTITLE6=Sailing to Philadelphia
TTITLE7=The last laugh
TTITLE8=One more matinee
TTITLE9=Golden Heart
TTITLE10=Don't you get it
TTITLE11=A night in sommer long ago
TTITLE12=I'm the fool
TTITLE13=Nobody's got the gun
TTITLE14=Done with Bonaparte
TTITLE15=Are we in trouble now
EXTD=
EXTT0=
EXTT1=
EXTT2=
EXTT3=
EXTT4=
EXTT5=
EXTT6=
EXTT7=
EXTT8=
EXTT9=
EXTT10=
EXTT11=
EXTT12=
EXTT13=
EXTT14=
EXTT15=
PLAYORDER=
